<svg width="255" height="158" viewBox="0 0 255 158" fill="none" xmlns="http://www.w3.org/2000/svg">
  <path fill-rule="evenodd" clip-rule="evenodd"
    d="M155.872 141.82L139.243 141.832H56.1003H56.0425L55.9848 141.832C55.9113 141.833 55.8369 141.833 55.7616 141.833C35.9108 141.833 16.1714 123.798 16.1714 103.483C16.1714 85.0996 32.4131 68.2131 50.9212 65.4932L62.9548 63.7249L64.5934 51.6762C67.2752 31.9571 84.6845 16.2758 106.262 16.2758C127.839 16.2758 145.249 31.9571 147.93 51.6762L149.569 63.725L161.603 65.4932C180.111 68.2127 196.353 85.0994 196.353 103.483C196.353 123.798 176.614 141.833 156.763 141.833C156.465 141.833 156.168 141.829 155.872 141.82ZM157.102 157.999C157.44 157.996 157.778 157.99 158.116 157.981C185.548 157.209 212.525 133.105 212.525 103.483C212.525 75.9687 189.25 53.2149 163.954 49.4981C160.163 21.6175 135.778 0.108887 106.262 0.108887C76.7458 0.108887 52.3611 21.6175 48.5694 49.4982C23.2741 53.2155 0 75.969 0 103.483C0 133.592 27.8706 158 55.7616 158L55.8735 158C55.9492 158 56.0248 157.999 56.1003 157.999H139.243H155.415V157.981C155.75 157.99 156.087 157.996 156.424 157.999C156.481 157.999 156.538 157.999 156.595 158C156.651 158 156.707 158 156.763 158C156.876 158 156.989 158 157.102 157.999Z"
    fill="#07E897" />

  <path fill-rule="evenodd" clip-rule="evenodd"
    d="M190.406 51.5673L191.813 61.9189C192.61 62.5677 193.39 63.237 194.152 63.9258L204.078 65.3843C222.586 68.1038 238.829 84.9905 238.829 103.374C238.829 123.689 219.089 141.724 199.238 141.724C198.94 141.724 198.643 141.72 198.347 141.712L195.437 141.629C185.285 151.346 171.769 157.489 158.14 157.872C157.82 157.881 157.5 157.887 157.18 157.89H181.718H197.89V157.872C198.226 157.882 198.562 157.887 198.9 157.89C198.98 157.89 199.061 157.891 199.142 157.891C199.174 157.891 199.206 157.891 199.238 157.891C199.351 157.891 199.464 157.891 199.577 157.89C199.915 157.887 200.253 157.882 200.591 157.872C228.023 157.1 255 132.996 255 103.374C255 75.8598 231.725 53.1061 206.43 49.3892C202.638 21.5086 178.253 0 148.737 0C141.247 0 134.087 1.38504 127.511 3.90777C134.824 6.71287 141.416 10.9247 146.94 16.2033C147.535 16.1791 148.135 16.1669 148.737 16.1669C170.315 16.1669 187.724 31.8482 190.406 51.5673ZM155.439 157.872C155.757 157.881 156.075 157.887 156.395 157.89H155.439V157.872ZM97.9619 157.89H98.5105L98.4765 157.89L98.3487 157.891L98.2368 157.891C98.1451 157.891 98.0535 157.891 97.9619 157.89Z"
    fill="#CCCBCA" />
</svg>